<?xml version="1.0" encoding="utf-8"?>
<!-- Generator: Adobe Illustrator 23.0.6, SVG Export Plug-In . SVG Version: 6.00 Build 0)  -->
<svg version="1.1" id="Camada_1" xmlns="http://www.w3.org/2000/svg" xmlns:xlink="http://www.w3.org/1999/xlink" x="0px" y="0px"
	 viewBox="0 0 1000 1000" style="enable-background:new 0 0 1000 1000;" xml:space="preserve">
<style type="text/css">
	.st0{fill:#F38181;}
</style>
<title>spotify</title>
<path class="st0" d="M500,62.6C258.4,62.6,62.5,258.4,62.5,500S258.4,937.5,500,937.5S937.5,741.6,937.5,500S741.7,62.6,500,62.6z
	 M700.7,693.5c-7.9,12.9-24.6,16.9-37.5,9.1c-102.7-62.8-232-77-384.3-42.2c-14.7,3.4-29.3-5.8-32.6-20.5
	c-3.4-14.7,5.8-29.3,20.5-32.6c166.7-38.1,309.6-21.7,424.9,48.8C704.5,663.9,708.5,680.7,700.7,693.5z M754.2,574.4
	c-9.9,16.1-30.9,21.1-46.9,11.2c-117.6-72.3-296.9-93.2-436-51c-18,5.4-37.1-4.7-42.6-22.7c-5.4-18,4.7-37.1,22.7-42.5
	c158.9-48.2,356.4-24.9,491.5,58.1C759,537.4,764.1,558.4,754.2,574.4L754.2,574.4z M758.8,450.4c-141-83.8-373.6-91.5-508.3-50.6
	c-21.6,6.6-44.5-5.6-51-27.3c-6.6-21.6,5.6-44.5,27.3-51c154.5-46.9,411.4-37.8,573.8,58.5c19.4,11.5,25.8,36.7,14.3,56.1
	S778.2,461.9,758.8,450.4z"/>
</svg>
